<svg width="185" height="27" viewBox="0 0 185 27" fill="none" xmlns="http://www.w3.org/2000/svg">
<path d="M24.3696 26.2527V0.660156H30.199V26.2527H24.3696ZM137.688 16.691C137.688 10.5062 132.889 6.66729 127.273 6.66729C121.621 6.66729 116.858 10.5417 116.858 16.691C116.858 22.8759 121.657 26.7503 127.273 26.7503C132.889 26.7503 137.688 22.8403 137.688 16.691ZM131.929 16.691C131.929 19.9256 129.761 21.7384 127.237 21.7384C124.714 21.7384 122.545 19.9256 122.545 16.691C122.545 13.4209 124.714 11.6792 127.237 11.6792C129.761 11.6792 131.929 13.4209 131.929 16.691ZM22.0236 18.8948C22.0236 16.0157 20.5307 13.8119 17.8648 12.8166C20.3885 11.4303 21.2772 9.61754 21.2772 7.48483C21.2772 3.75259 18.5757 0.660156 12.533 0.695701H0.945312V26.2882H13.0307C19.1089 26.2527 22.0236 23.2313 22.0236 18.8948ZM15.0923 8.23128C15.0923 9.97299 13.9904 10.9683 11.8577 10.9683H7.02354V5.63648H11.8577C13.8127 5.63648 15.0923 6.48957 15.0923 8.23128ZM15.6255 18.5038C15.6255 20.1745 14.4525 21.2764 12.2842 21.2764H7.02354V15.7313H12.2842C14.3814 15.7313 15.6255 16.7977 15.6255 18.5038ZM72.7821 11.8924C71.1826 8.55119 68.1968 6.70284 63.6826 6.70284C58.3508 6.70284 53.5877 10.0441 53.5877 16.691C53.5877 23.1603 57.7821 26.7503 63.6115 26.7503C67.6992 26.7503 71.147 25.1152 72.7821 21.5963L68.0902 19.1792C67.2371 20.7432 65.9219 21.7384 63.8247 21.7384C61.1233 21.7384 59.3816 19.819 59.3816 16.691C59.3816 13.5631 61.3721 11.6792 63.7892 11.6792C65.6731 11.6792 67.0949 12.5322 67.9835 14.3806L72.7821 11.8924ZM158.695 11.8924C157.095 8.55119 154.109 6.70284 149.595 6.70284C144.263 6.70284 139.5 10.0441 139.5 16.691C139.5 23.1603 143.695 26.7503 149.524 26.7503C153.612 26.7503 157.06 25.1152 158.695 21.5963L154.003 19.1792C153.15 20.7432 151.835 21.7384 149.737 21.7384C147.036 21.7384 145.294 19.819 145.294 16.691C145.294 13.5631 147.285 11.6792 149.702 11.6792C151.586 11.6792 153.008 12.5322 153.896 14.3806L158.695 11.8924ZM109.82 26.2527L104.951 17.6508H101.218V26.2527H95.2111V0.660156H106.052C111.917 0.660156 116.005 3.46823 116.005 8.97773C116.005 12.4967 114.263 14.9849 111.171 16.5133L116.787 26.2527H109.82ZM101.254 12.5678H105.733C108.505 12.5678 109.856 11.0038 109.856 9.15545C109.856 6.95165 108.576 5.74312 105.733 5.74312H101.254V12.5678ZM52.628 25.9328V21.9162C52.3792 21.9873 52.0237 22.0584 51.6327 22.0584C50.8863 22.0584 50.4953 21.6674 50.4953 20.992V14.3451C50.4953 9.36873 47.154 6.73838 41.6445 6.73838C38.0545 6.73838 34.9976 8.05355 33.0782 9.75972L36.3128 13.3853C37.5924 12.2479 39.2986 11.537 40.9692 11.537C43.5284 11.537 44.737 12.8166 44.737 14.9138V15.518C43.5284 15.2337 42 14.9493 40.1516 14.9493C35.4952 14.9493 32.4739 17.1887 32.4739 20.8854C32.4739 24.6887 34.9976 26.6792 38.9076 26.6792C41.5735 26.6792 43.955 25.5773 45.1991 24.1555C45.9455 26.0394 47.5806 26.537 49.1801 26.537C50.282 26.5726 51.5617 26.3949 52.628 25.9328ZM44.7725 19.9256C44.7725 21.6674 43.1019 22.8048 41.1825 22.8048C39.3697 22.8048 38.481 21.8806 38.481 20.601C38.481 19.2503 39.4763 18.255 41.5024 18.255C42.7464 18.255 43.8483 18.4683 44.7725 18.6816V19.9256ZM179.524 26.2527L172.664 14.3451L179.098 7.34265H172.629L165.839 14.8782V0.695701H160.046V26.2882H165.839V21.6674L168.612 18.7171L172.948 26.2882H179.524V26.2527ZM93.6827 26.2527L86.8225 14.3451L93.2561 7.34265H86.7158L79.9978 14.8782V0.695701H74.2039V26.2882H79.9978V21.6674L82.7703 18.7171L87.1068 26.2882H93.6827V26.2527ZM183.079 22.6982C184.287 22.6982 184.998 23.4446 184.998 24.5821C184.998 25.7195 184.287 26.466 183.079 26.466C181.87 26.466 181.159 25.7195 181.159 24.5821C181.159 23.4446 181.87 22.6982 183.079 22.6982ZM183.079 26.2171C184.039 26.2171 184.678 25.6484 184.678 24.5821C184.678 23.5157 184.003 22.947 183.079 22.947C182.119 22.947 181.479 23.5157 181.479 24.5821C181.444 25.684 182.119 26.2171 183.079 26.2171ZM182.332 23.6223H183.114C183.576 23.6223 183.825 23.8712 183.825 24.2266C183.825 24.5465 183.683 24.7242 183.434 24.8309L183.79 25.5062H183.434L183.114 24.902H182.688V25.5062H182.332V23.6223ZM182.688 23.9067V24.5821H183.079C183.328 24.5821 183.47 24.511 183.47 24.2622C183.47 24.0489 183.363 23.9422 183.114 23.9422H182.688V23.9067Z" fill="black"/>
</svg>
