<svg width="207" height="27" viewBox="0 0 207 27" fill="none" xmlns="http://www.w3.org/2000/svg">
<path d="M72.6662 6.60028H74.5256V17.1885L65.8485 5.41233H61.5615V6.65193H63.3693L63.9374 7.52997V20.8556H62.078V22.0952H67.4496V20.8556H65.5902V9.64761L74.8355 22.4051H76.1267V6.70357H77.9861V5.46398H72.6662V6.60028ZM52.5745 20.5973H50.4568V14.0895H52.5745C54.7954 14.0895 56.2416 15.3807 56.2416 17.4984C56.2416 19.7709 54.2789 20.5973 52.5745 20.5973ZM50.4568 6.85852H52.5228C53.6075 6.85852 55.4152 7.22007 55.4152 9.69926C55.4152 11.7652 53.9174 12.6949 52.4195 12.6949H50.5085V6.85852H50.4568ZM55.2086 13.2631C56.8098 12.7982 58.2559 11.6103 58.2559 9.59596C58.2559 7.01347 56.3449 5.41233 53.4009 5.41233H45.7051V6.65193H47.5645V20.8556H45.7051V22.1468H53.8141C56.9647 22.1468 59.0307 20.3391 59.0307 17.7566C59.0823 15.0192 57.223 13.6763 55.2086 13.2631ZM89.3491 6.60028H91.4667L87.8512 12.54L84.0291 6.60028H85.9402V5.36068H79.2257V6.60028H80.7236L85.7852 14.3994V20.8039H83.9258V22.0952H90.4337V20.8039H88.5743V14.2961L93.2744 6.65193H94.6173V5.41233H89.3491V6.60028ZM168.321 20.5973H162.795V6.60028H164.654V5.36068H158.146V6.60028H160.006V20.8039H158.146V22.0952H169.716V18.4797H168.27L168.321 20.5973ZM154.066 20.5973H148.591V6.60028H150.451V5.36068H143.943V6.60028H145.802V20.8039H143.943V22.0952H155.512V18.4797H154.066V20.5973ZM114.502 17.3951L108.873 5.41233H104.224V6.65193H106.084V20.8556H104.224V22.1468H109.544V20.8556H107.685V9.28606L113.883 22.6117L119.822 9.64761V20.9072H117.963V22.1985H124.471V20.9072H122.611V6.70357H124.471V5.46398H120.081L114.502 17.3951ZM179.736 20.7523C176.637 20.7523 174.468 17.8599 174.468 13.6763C174.468 9.54431 176.637 6.65193 179.736 6.65193C182.732 6.65193 184.901 9.54431 184.901 13.6763C184.953 17.8599 182.835 20.7523 179.736 20.7523ZM179.736 5.10243C175.139 5.10243 171.42 8.97616 171.42 13.7796C171.42 18.583 175.139 22.4567 179.736 22.4567C184.281 22.4567 188 18.583 188 13.7796C188 8.92451 184.333 5.10243 179.736 5.10243ZM201.274 5.36068V6.60028H203.133V17.1885L194.508 5.41233H190.169V6.65193H191.977L192.597 7.52997V20.8556H190.737V22.1468H196.057V20.8556H194.198V9.64761L203.443 22.4051H204.734V6.70357H206.594V5.46398L201.274 5.36068ZM138.416 20.5973H132.632V14.2444H137.022V16.1555H138.468V10.9388H136.97V12.7982H132.58V6.75522H138.106V8.87286H139.553V4.58594H138.106V5.25738H127.931V6.49698H129.791V20.7006H127.931V21.9919H139.811V18.3764H138.365L138.416 20.5973Z" fill="#4C4B4C"/>
<path d="M33.154 13.573L17.2459 7.375C13.8371 9.23439 11.048 11.4037 8.77539 13.573C11.048 15.7422 13.8371 17.9115 17.2459 19.7709L33.154 13.573Z" fill="#AB8432"/>
<path d="M0.046875 0.660156C0.046875 0.660156 1.69966 6.13502 7.27783 12.0747C9.70537 10.2153 12.6494 8.45926 16.1616 7.01307L0.046875 0.660156Z" fill="#8D9091"/>
<path d="M0.046875 26.5357C0.046875 26.5357 1.69966 21.0608 7.27783 15.1211C9.70537 16.9805 12.6494 18.7366 16.1616 20.1828L0.046875 26.5357Z" fill="#9E8F6C"/>
</svg>
