<svg width="110" height="39" viewBox="0 0 110 39" fill="none" xmlns="http://www.w3.org/2000/svg">
<path d="M16.9541 38.6746C12.5566 38.2835 8.70789 36.5416 5.78417 33.619C3.02319 30.8591 1.32906 27.3561 0.753318 23.2166C0.611824 22.1993 0.580301 19.8093 0.694223 18.7362C1.0639 15.2539 2.33174 12.1424 4.47309 9.46196C5.05018 8.73959 6.24929 7.51479 6.93971 6.94248C10.5994 3.90882 15.2189 2.43095 20.2191 2.69415C22.5781 2.81832 24.1977 3.10795 26.0102 3.72977C27.2681 4.16131 29.0759 5.07431 29.6336 5.55966L29.7745 5.68227L29.7585 7.05407L29.7425 8.42586L29.1457 8.05856C26.4079 6.37351 22.935 5.48169 19.1199 5.48395C15.8864 5.48586 12.9019 6.35217 10.361 8.02646C7.74659 9.74914 5.77671 12.181 4.62351 15.1095C3.06235 19.0741 3.30391 23.9185 5.25775 27.8291C7.48509 32.287 11.5884 35.1552 16.6794 35.8126C18.1774 36.0061 20.3866 35.918 21.9558 35.6023C27.0907 34.5692 30.3129 31.0573 30.9993 25.7459C31.0709 25.1917 31.0962 24.5239 31.1007 23.0745L31.1066 21.142L25.0392 21.1276L18.9719 21.1131V18.3854H33.8064L33.8059 20.8436C33.8053 23.6155 33.7448 25.0661 33.5814 26.2264C33.0879 29.7299 31.7833 32.5187 29.6308 34.6712C27.4493 36.8527 24.6575 38.1325 21.0748 38.5933C20.2387 38.7008 17.7919 38.7491 16.9541 38.6746ZM86.1536 6.11551V0.140625H88.9387V10.2404L88.698 10.3485C88.2003 10.572 87.4946 11.0534 86.2247 12.0355C86.168 12.0793 86.1536 10.8868 86.1536 6.11551ZM81.9477 8.27974V0.140625H84.7327V13.1689L84.2975 13.6316C83.8517 14.1054 83.0503 15.0474 82.4049 15.8562C82.2054 16.1063 82.0209 16.3352 81.9949 16.3649C81.9689 16.3946 81.9477 12.7563 81.9477 8.27974Z" fill="#00B14F"/>
<path d="M17.693 34.438C14.1957 34.163 11.2507 32.8131 8.93228 30.4224C8.25136 29.7202 7.85886 29.2325 7.33552 28.4385C5.39621 25.496 4.64209 21.653 5.30275 18.0795C6.14975 13.498 9.31168 9.69469 13.7404 7.93029C14.8666 7.48162 16.2562 7.15069 17.5766 7.01669C18.4335 6.92975 20.7346 6.97839 21.6432 7.10267C24.5689 7.5028 27.1807 8.40667 29.2734 9.74326L29.7704 10.0607L29.7707 11.4086C29.7709 12.637 29.7621 12.7613 29.671 12.81C29.5927 12.8519 29.4166 12.7657 28.861 12.4135C26.6691 11.0241 24.3355 10.2125 21.5864 9.88338C20.5388 9.75796 18.2753 9.74184 17.4941 9.85422C12.4705 10.5769 8.89196 14.1906 8.25574 19.1831C8.08255 20.5422 8.20034 22.4584 8.53874 23.787C9.29446 26.754 11.1207 29.1667 13.5656 30.4282C15.2247 31.2843 16.6835 31.6305 18.6308 31.6305C21.3575 31.6305 23.5506 30.8552 25.0549 29.3594C26.0299 28.3899 26.5997 27.2142 26.7293 25.9042L26.7701 25.4921H18.9719V22.5934H29.6573V23.7525C29.6573 25.5405 29.5145 26.603 29.1128 27.8036C28.2988 30.2366 26.5727 32.168 24.2009 33.2999C22.6583 34.0361 21.0165 34.3941 18.9802 34.4385C18.4286 34.4505 17.8493 34.4503 17.693 34.4379V34.438ZM95.0597 34.469C92.85 34.2729 90.9047 33.2982 89.2439 31.555C88.0533 30.3053 87.2097 28.8142 86.8427 27.3109C86.63 26.4399 86.5631 26.61 87.7768 24.9368C88.3689 24.1204 88.8701 23.451 88.8906 23.4492C88.911 23.4474 88.9444 23.7209 88.9647 24.0569C89.0161 24.9073 89.0926 25.4279 89.2634 26.0889C90.0217 29.0238 92.1532 31.1447 94.8116 31.6095C95.5174 31.7329 96.7301 31.6881 97.4074 31.5135C99.8555 30.8825 101.483 29.0321 102.105 26.1741C102.255 25.484 102.256 23.4566 102.107 22.7771C101.802 21.3918 101.208 20.2227 100.349 19.3181C99.1209 18.0255 97.5102 17.3643 95.5886 17.3643C93.1225 17.3643 91.3286 18.3648 88.9624 21.0597C86.6491 23.6946 82.8072 28.5774 80.8756 31.3376L80.1857 32.3235V27.7372L81.168 26.4015C81.7083 25.6669 82.655 24.4136 83.2719 23.6164C83.8887 22.8193 84.7446 21.7068 85.1738 21.1443C87.1462 18.5596 88.4188 17.2628 90.0356 16.19C93.3708 13.977 97.7597 13.9212 100.943 16.0515C104.191 18.2254 105.752 22.4769 104.881 26.7782C104.178 30.2482 101.956 32.9255 98.8816 34.0063C98.2165 34.2401 97.4519 34.3978 96.6397 34.4686C95.8908 34.5339 95.7913 34.5339 95.0593 34.4691L95.0597 34.469ZM71.7738 30.771C71.7738 24.5892 71.7617 23.521 71.6857 23.0093C71.4075 21.1358 70.5424 19.5749 69.2409 18.5981C68.397 17.9647 67.4505 17.5712 66.3263 17.3862C65.5207 17.2536 64.3176 17.3054 63.5608 17.5052C61.0335 18.1722 59.2164 20.2306 58.6678 23.0481C58.5112 23.8519 58.5247 25.3685 58.6956 26.1741C59.258 28.826 60.94 30.7408 63.305 31.4215C65.3866 32.0207 68.2553 31.5718 70.027 30.3696L70.3548 30.1472L70.3396 31.6122L70.3244 33.0772L69.7561 33.3745C68.3181 34.1264 66.0642 34.6063 64.4702 34.4998C61.4187 34.2959 58.9629 32.9106 57.3287 30.4713C55.5891 27.8746 55.1444 24.1061 56.2025 20.9277C57.6003 16.7289 61.5199 14.1643 65.9906 14.5232C68.4148 14.7179 70.2354 15.5311 71.8328 17.1329C73.3095 18.6135 74.1014 20.2124 74.4813 22.4797C74.5724 23.0235 74.583 23.7369 74.601 30.508L74.6208 37.9395H71.7738V30.771ZM39.8889 30.5932C39.8897 23.0587 39.9136 22.049 40.1138 21.0665C40.6281 18.5427 42.1252 16.5353 44.3138 15.4349C44.8319 15.1745 45.9086 14.8307 46.538 14.7249C48.4352 14.406 50.407 14.6944 51.8073 15.4955L52.1034 15.6649L51.8689 16.0457C51.74 16.2552 51.458 16.791 51.2422 17.2365C51.0263 17.6819 50.8451 18.0464 50.8395 18.0464C50.8338 18.0464 50.5862 17.9597 50.2893 17.8537C49.0186 17.4004 47.8573 17.327 46.6699 17.6247C45.5582 17.9035 44.5455 18.5603 43.8897 19.4276C43.5239 19.9114 43.1009 20.8038 42.9145 21.485L42.7589 22.0534L42.7429 29.9964L42.7268 37.9395H39.888L39.8889 30.5932Z" fill="#00B14F"/>
<path d="M35.7383 30.108C35.7384 22.2839 35.7518 21.6513 35.943 20.4883C36.5323 16.9037 38.4083 13.9787 41.2083 12.2787C43.8701 10.6628 47.4014 10.1098 50.8002 10.7769C52.0107 11.0145 53.5155 11.5999 54.4432 12.1942L54.818 12.4343L54.153 13.0936C53.7873 13.4563 53.3726 13.8894 53.2316 14.056L52.9751 14.3591L52.6407 14.1904C51.5239 13.6271 49.6344 13.2131 48.1805 13.2131C43.6081 13.2131 40.0421 15.8678 38.9249 20.1033C38.5412 21.5582 38.5589 21.107 38.5379 29.9375L38.5189 37.9373H35.7383L35.7383 30.108ZM94.6218 38.6979C90.3554 38.3091 86.821 36.2613 84.6491 32.9196C84.3065 32.3924 83.7107 31.1936 83.5932 30.7949L83.5235 30.5583L84.5114 29.2144L85.4994 27.8705L85.5495 28.0585C86.1889 30.4608 87.5911 32.5042 89.5678 33.9144C90.1824 34.3529 91.2994 34.9461 92.0393 35.2272C93.8966 35.9326 95.9551 36.1024 97.9597 35.7156C99.2639 35.4639 100.813 34.8011 101.897 34.0305C102.564 33.5566 103.801 32.3293 104.251 31.6947C105.351 30.1432 106.075 28.2989 106.366 26.3057C106.5 25.3922 106.501 23.5491 106.369 22.6448C105.907 19.489 104.47 16.9499 102.153 15.1925C100.202 13.7135 97.4551 12.9461 94.8341 13.1483C90.8657 13.4544 88.1311 15.2593 84.1974 20.1693C83.7938 20.673 82.7352 22.057 81.8449 23.2449C80.9546 24.4328 80.2169 25.4154 80.2056 25.4284C80.1944 25.4414 80.1851 24.5201 80.1851 23.381V21.3099L81.1382 19.9755C83.1583 17.1469 84.0325 16.0661 85.4123 14.6908C86.8492 13.2587 87.999 12.4104 89.5349 11.6492C90.8254 11.0097 92.0659 10.6251 93.5988 10.3894C94.5185 10.248 96.7713 10.248 97.6911 10.3894C100.824 10.8712 103.317 12.1411 105.421 14.3267C107.481 16.4672 108.715 19.1226 109.181 22.4207C109.283 23.145 109.284 25.7857 109.182 26.513C108.85 28.8717 108.085 30.988 106.932 32.7367C104.793 35.9824 101.675 37.9882 97.8333 38.5918C97.2837 38.6782 95.1712 38.748 94.622 38.6979H94.6218ZM63.7591 38.6682C57.5997 38.1042 52.8448 33.7747 51.6581 27.6498C51.4334 26.4899 51.397 26.0544 51.397 24.5237C51.397 22.649 51.5234 21.6808 51.9684 20.1462C53.1333 16.1288 56.0926 12.7991 59.8658 11.2603C61.6681 10.5253 63.2327 10.2296 65.2937 10.2344C67.2926 10.2392 68.7653 10.4982 70.4375 11.1393C72.2222 11.8235 73.6637 12.7741 75.0175 14.1594C76.9866 16.1744 78.1592 18.5997 78.6664 21.7064C78.7852 22.4342 78.788 22.6049 78.8066 30.1933L78.8256 37.9373H75.9792L75.9786 30.8185C75.978 26.3986 75.9557 23.441 75.9192 23.0175C75.677 20.2073 74.5318 17.7299 72.6529 15.9517C70.545 13.9568 67.4568 12.9043 64.427 13.1484C59.2217 13.5677 55.3531 17.1368 54.4383 22.3639C54.183 23.8227 54.2278 25.7683 54.5537 27.3816C54.7888 28.5451 55.3835 30.0771 55.9702 31.0301C57.1966 33.0228 59.0025 34.4777 61.2196 35.2594C63.1189 35.929 65.2935 36.0984 67.1448 35.721C68.2025 35.5053 69.4613 35.021 70.0924 34.5867L70.3523 34.408V37.231L70.0255 37.4465C69.0952 38.06 67.7274 38.5091 66.2884 38.6737C65.6942 38.7416 64.5334 38.7391 63.7591 38.6682Z" fill="#00B14F"/>
</svg>
