<svg xmlns="http://www.w3.org/2000/svg" width="81" height="24" fill="none" viewBox="0 0 81 24" class="MuiSvgIcon-root MuiSvgIcon-fontSizeMedium css-1h9c92y" focusable="false" aria-hidden="true"><path fill="#101010" d="M30.613 6.741c-1.5 0-2.656.877-2.656 2.18 0 1.265.98 1.699 2.197 1.934l1.536.253c2.038.343 3.441 1.302 3.441 3.58 0 2.377-1.906 3.77-4.332 3.77-2.189 0-4.254-1.32-4.554-3.906a.36.36 0 0 1 .353-.407h.918c.176 0 .326.136.353.317.194 1.826 1.58 2.55 2.938 2.55 1.483 0 2.657-.751 2.657-2.27 0-1.356-.945-1.826-2.198-2.07l-1.518-.271c-2.126-.362-3.459-1.41-3.459-3.4 0-2.305 1.96-3.715 4.315-3.715 1.88 0 3.954 1.085 4.36 3.661a.366.366 0 0 1-.353.425h-.953a.35.35 0 0 1-.345-.298c-.273-1.709-1.49-2.333-2.7-2.333M41.238 8.152c2.268 0 3.883 1.238 4.456 3.263a.364.364 0 0 1-.344.461h-1.068c-.15 0-.282-.1-.335-.244-.397-1.157-1.315-1.817-2.71-1.817-1.897 0-2.956 1.582-2.956 3.49 0 1.898 1.068 3.49 2.957 3.49 1.394 0 2.312-.66 2.709-1.818a.36.36 0 0 1 .335-.244h1.068c.238 0 .406.235.335.461-.608 2.115-2.17 3.263-4.447 3.263-2.921 0-4.774-2.314-4.774-5.152-.01-2.83 1.853-5.153 4.774-5.153M47.407 16.812h2.285v-6.509h-2.038a.36.36 0 0 1-.353-.362V9.02c0-.199.158-.361.353-.361h2.78c.582 0 1.058.488 1.058 1.085v.262c.503-1.239 1.589-1.546 3.274-1.546.645 0 1.077.108 1.324.199.141.054.23.19.23.334v.958c0 .245-.23.425-.46.344-.3-.1-.723-.19-1.279-.19-1.8 0-3.08 1.257-3.08 3.435v3.273h2.939c.194 0 .353.163.353.362v.922a.36.36 0 0 1-.353.361h-7.025a.36.36 0 0 1-.353-.361v-.922a.346.346 0 0 1 .345-.362M57.66 13.305c0-2.83 1.836-5.153 4.82-5.153 2.982 0 4.818 2.314 4.818 5.153s-1.836 5.152-4.819 5.152-4.818-2.314-4.818-5.152m4.82 3.49c1.914 0 3.017-1.583 3.017-3.49 0-1.899-1.103-3.49-3.018-3.49s-3.018 1.582-3.018 3.49c0 1.907 1.103 3.49 3.018 3.49M71.286 16.894h2.762c.194 0 .353.162.353.361v.85a.36.36 0 0 1-.353.361H69.91a.36.36 0 0 1-.353-.361V6.949H68.18a.36.36 0 0 1-.353-.361v-.85c0-.199.159-.362.353-.362h2.038c.583 0 1.06.489 1.06 1.085v10.433zM77.393 16.894h2.762c.194 0 .353.162.353.361v.85a.36.36 0 0 1-.353.361h-4.139a.36.36 0 0 1-.353-.361V6.949h-1.377a.36.36 0 0 1-.353-.361v-.85c0-.199.16-.362.353-.362h2.039c.582 0 1.059.489 1.059 1.085v10.433z"/><path fill="#FFEEDA" d="M20.773 15.809V2.519c-.017-1.111-.882-2.006-1.968-2.006H5.268C2.348.558 0 3.008 0 6.009c0 1.013.265 1.88.67 2.64.345.633.883 1.23 1.413 1.672.15.127.08.073.538.362a5.8 5.8 0 0 0 1.359.597l-.009 7.946c.018.38.053.741.15 1.076.3 1.12 1.06 1.98 2.092 2.395.432.172.917.29 1.438.299l10.81.036c2.154 0 3.9-1.79 3.9-4.005a4.02 4.02 0 0 0-1.588-3.218"/><path fill="#EBC28E" d="M21.038 19.126c-.044 1.42-1.183 2.559-2.577 2.559l-7.439-.027a4.06 4.06 0 0 0 .953-2.613c0-1.564-.909-2.64-.909-2.64h7.404c1.42 0 2.577 1.185 2.577 2.64z"/><path fill="#101010" d="M2.789 9.2c-.856-.831-1.456-1.907-1.456-3.182v-.135c.07-2.18 1.817-3.933 3.944-3.996h13.537c.353.018.636.271.636.642v11.734c.309.054.459.1.759.208.238.09.564.28.564.28V2.529c-.017-1.112-.882-2.007-1.968-2.007H5.268C2.348.567 0 3.017 0 6.018c0 1.745.777 3.237 2.047 4.285.089.073.168.163.397.163.398 0 .68-.325.662-.678-.009-.298-.132-.407-.317-.588"/><path fill="#101010" d="M18.461 15.031H7.845a1.314 1.314 0 0 0-1.288 1.33v1.563c.017.723.618 1.338 1.332 1.338h.786v-1.338h-.786v-1.528h.433c1.341 0 2.33 1.275 2.33 2.64 0 1.211-1.077 2.757-2.877 2.63-1.598-.108-2.462-1.563-2.462-2.63V5.783c0-.597-.477-1.085-1.06-1.085H3.196v1.356h.785v12.991c-.044 2.64 1.836 3.969 3.795 3.969l10.695.036c2.153 0 3.9-1.79 3.9-4.005s-1.755-4.014-3.909-4.014m2.577 4.095c-.044 1.42-1.182 2.559-2.577 2.559l-7.439-.027a4.06 4.06 0 0 0 .953-2.613c0-1.564-.909-2.64-.909-2.64h7.404c1.42 0 2.577 1.185 2.577 2.64zM15.602 6.299H7.598V4.943h8.004a.67.67 0 0 1 .662.678.67.67 0 0 1-.662.678"/><path fill="#101010" d="M15.602 12.68H7.598v-1.355h8.004a.67.67 0 0 1 .662.678.67.67 0 0 1-.662.678M17.014 9.49H7.598V8.134h9.407a.67.67 0 0 1 .662.678.66.66 0 0 1-.653.678"/></svg>