<?xml version="1.0" standalone="no"?><svg xmlns:xlink="http://www.w3.org/1999/xlink" xmlns="http://www.w3.org/2000/svg" viewBox="0 0 1000 700.0060723418324" preserveAspectRatio="xMaxYMax slice"><g transform="scale(1.6867616201008009)"><rect x="0" y="0" width="592.8571428571429" height="415" fill="#191221"/><rect x="0" y="0" width="59.285714285714285" height="59.285714285714285" fill="#191221"/><rect x="0" y="0" width="29.64" height="29.64" fill="#742e4c"/><polygon points="29.64,0 29.64,29.64 0,29.64" fill="#6b2b48"/><rect x="29.64" y="0" width="29.64" height="29.64" fill="#504750"/><polygon points="29.64,0 59.28,29.64 29.64,29.64" fill="#a43d63"/><rect x="0" y="29.64" width="29.64" height="29.64" fill="#6c2c49"/><polygon points="0,29.64 29.64,29.64 0,59.28" fill="#321a2d"/><rect x="29.64" y="29.64" width="29.64" height="29.64" fill="#71666c"/><polygon points="29.64,29.64 59.28,29.64 59.28,59.28" fill="#675d63"/><rect x="59.29" y="0" width="59.29" height="59.29" fill="#772f4d"/><path d="M 59.29 0 A 59.29 59.29 0 0 0 118.58 59.29 L 118.58 0L59.29 0" fill="#1b1322"/><rect x="118.57142857142857" y="0" width="59.285714285714285" height="59.285714285714285" fill="#191221"/><rect x="118.57" y="0" width="29.64" height="29.64" fill="#7b3050"/><polygon points="148.20999999999998,0 148.20999999999998,29.64 118.57,29.64" fill="#b5426b"/><rect x="148.21" y="0" width="29.64" height="29.64" fill="#413843"/><polygon points="148.21,0 177.85000000000002,29.64 148.21,29.64" fill="#d5c6c0"/><rect x="118.57" y="29.64" width="29.64" height="29.64" fill="#a73e64"/><polygon points="118.57,29.64 148.20999999999998,29.64 118.57,59.28" fill="#e4d5cd"/><rect x="148.21" y="29.64" width="29.64" height="29.64" fill="#4d223a"/><polygon points="148.21,29.64 177.85000000000002,29.64 177.85000000000002,59.28" fill="#863455"/><rect x="177.85714285714286" y="0" width="59.285714285714285" height="59.285714285714285" fill="#191221"/><rect x="177.86" y="0" width="29.64" height="29.64" fill="#2c2431"/><circle cx="192.68" cy="14.82" r="14.82" fill="#b5426b"/><rect x="207.5" y="0" width="29.64" height="29.64" fill="#1a1221"/><rect x="207.5" y="0" width="29.64" height="29.64" fill="#2b182a"/><rect x="177.86" y="29.64" width="29.64" height="29.64" fill="#833354"/><circle cx="192.68" cy="44.46" r="14.82" fill="#431f35"/><rect x="207.5" y="29.64" width="29.64" height="29.64" fill="#742e4c"/><rect x="207.5" y="29.64" width="29.64" height="29.64" fill="#eeded5"/><rect x="237.14285714285714" y="0" width="59.285714285714285" height="59.285714285714285" fill="#191221"/><rect x="237.14" y="0" width="29.64" height="29.64" fill="#cdbeb9"/><circle cx="251.95999999999998" cy="14.82" r="14.82" fill="#201827"/><rect x="266.79" y="0" width="29.64" height="29.64" fill="#c94875"/><rect x="266.79" y="0" width="29.64" height="29.64" fill="#948889"/><rect x="237.14" y="29.64" width="29.64" height="29.64" fill="#772f4d"/><circle cx="251.95999999999998" cy="44.46" r="14.82" fill="#7e7376"/><rect x="266.79" y="29.64" width="29.64" height="29.64" fill="#998d8d"/><rect x="266.79" y="29.64" width="29.64" height="29.64" fill="#554c54"/><rect x="296.43" y="0" width="59.29" height="59.29" fill="#7b3050"/><rect x="296.43" y="0" width="59.29" height="59.29" fill="#823253"/><rect x="355.71" y="0" width="59.29" height="59.29" fill="#a63d64"/><rect x="355.71" y="0" width="59.29" height="59.29" fill="#756a6f"/><rect x="415" y="0" width="59.285714285714285" height="59.285714285714285" fill="#191221"/><rect x="415" y="0" width="29.64" height="29.64" fill="#f5e5db"/><polygon points="444.64,0 444.64,29.64 415,29.64" fill="#b8aba8"/><rect x="444.64" y="0" width="29.64" height="29.64" fill="#281728"/><polygon points="444.64,0 474.28,29.64 444.64,29.64" fill="#72676c"/><rect x="415" y="29.64" width="29.64" height="29.64" fill="#28202d"/><polygon points="415,29.64 444.64,29.64 444.64,59.28" fill="#877c7f"/><rect x="444.64" y="29.64" width="29.64" height="29.64" fill="#6c2c48"/><polygon points="444.64,29.64 474.28,29.64 444.64,59.28" fill="#95385c"/><rect x="474.2857142857143" y="0" width="59.285714285714285" height="59.285714285714285" fill="#191221"/><rect x="474.29" y="0" width="29.64" height="29.64" fill="#231b29"/><polygon points="503.93,0 503.93,29.64 474.29,29.64" fill="#1d1323"/><rect x="503.93" y="0" width="29.64" height="29.64" fill="#7c7175"/><polygon points="503.93,0 533.57,29.64 503.93,29.64" fill="#4c2239"/><rect x="474.29" y="29.64" width="29.64" height="29.64" fill="#8b7f82"/><polygon points="474.29,29.64 503.93,29.64 474.29,59.28" fill="#908485"/><rect x="503.93" y="29.64" width="29.64" height="29.64" fill="#e0d1ca"/><polygon points="503.93,29.64 533.57,29.64 533.57,59.28" fill="#cdbfba"/><rect x="533.5714285714286" y="0" width="59.285714285714285" height="59.285714285714285" fill="#191221"/><rect x="533.57" y="0" width="29.64" height="29.64" fill="#655b62"/><path d="M 533.57 0 A 29.64 29.64 0 0 0 563.21 29.64 L 563.21 0L533.57 0" fill="#5c525a"/><rect x="563.21" y="0" width="29.64" height="29.64" fill="#5a2640"/><path d="M 563.21 29.64 A 29.64 29.64 0 0 0 592.85 0 L 563.21 0L563.21 29.64" fill="#5d2741"/><rect x="533.57" y="29.64" width="29.64" height="29.64" fill="#9e9292"/><path d="M 533.57 59.28 A 29.64 29.64 0 0 1  563.21 29.64 L 563.21 59.28L533.57 59.28" fill="#883456"/><rect x="563.21" y="29.64" width="29.64" height="29.64" fill="#70666b"/><path d="M 563.21 29.64 A 29.64 29.64 0 0 1 592.85 59.28 L 563.21 59.28L563.21 29.64" fill="#96385c"/><rect x="0" y="59.285714285714285" width="59.285714285714285" height="59.285714285714285" fill="#191221"/><rect x="0" y="59.29" width="29.64" height="29.64" fill="#201424"/><polygon points="29.64,59.29 29.64,88.93 0,88.93" fill="#c34672"/><rect x="29.64" y="59.29" width="29.64" height="29.64" fill="#ae4068"/><polygon points="29.64,59.29 59.28,88.93 29.64,88.93" fill="#95385c"/><rect x="0" y="88.93" width="29.64" height="29.64" fill="#9a8e8f"/><polygon points="0,88.93 29.64,88.93 0,118.57000000000001" fill="#af4068"/><rect x="29.64" y="88.93" width="29.64" height="29.64" fill="#5a5058"/><polygon points="29.64,88.93 59.28,88.93 59.28,118.57000000000001" fill="#c14671"/><rect x="59.285714285714285" y="59.285714285714285" width="59.285714285714285" height="59.285714285714285" fill="#191221"/><rect x="59.29" y="59.29" width="29.64" height="29.64" fill="#c1b3af"/><circle cx="74.11" cy="74.11" r="14.82" fill="#6d6368"/><rect x="88.93" y="59.29" width="29.64" height="29.64" fill="#b0a3a1"/><rect x="88.93" y="59.29" width="29.64" height="29.64" fill="#96385c"/><rect x="59.29" y="88.93" width="29.64" height="29.64" fill="#978b8b"/><circle cx="74.11" cy="103.75" r="14.82" fill="#3d1d32"/><rect x="88.93" y="88.93" width="29.64" height="29.64" fill="#a13c61"/><rect x="88.93" y="88.93" width="29.64" height="29.64" fill="#817679"/><rect x="118.57" y="59.29" width="59.29" height="59.29" fill="#bd446f"/><rect x="118.57" y="59.29" width="59.29" height="59.29" fill="#daccc5"/><rect x="177.85714285714286" y="59.285714285714285" width="59.285714285714285" height="59.285714285714285" fill="#191221"/><rect x="177.86" y="59.29" width="29.64" height="29.64" fill="#f6e7dd"/><path d="M 177.86 88.93 A 29.64 29.64 0 0 1  207.5 59.29 L 207.5 88.93L177.86 88.93" fill="#7c7175"/><rect x="207.5" y="59.29" width="29.64" height="29.64" fill="#7a6f73"/><path d="M 207.5 59.29 A 29.64 29.64 0 0 1 237.14 88.93 L 207.5 88.93L207.5 59.29" fill="#462036"/><rect x="177.86" y="88.93" width="29.64" height="29.64" fill="#431f35"/><path d="M 177.86 88.93 A 29.64 29.64 0 0 0 207.5 118.57000000000001 L 207.5 88.93L177.86 88.93" fill="#7e3151"/><rect x="207.5" y="88.93" width="29.64" height="29.64" fill="#53243d"/><path d="M 207.5 118.57000000000001 A 29.64 29.64 0 0 0 237.14 88.93 L 207.5 88.93L207.5 118.57000000000001" fill="#642945"/><rect x="237.14285714285714" y="59.285714285714285" width="59.285714285714285" height="59.285714285714285" fill="#191221"/><rect x="237.14" y="59.29" width="29.64" height="29.64" fill="#524952"/><path d="M 237.14 59.29 A 29.64 29.64 0 0 1 266.78 88.93 L 237.14 88.93L237.14 59.29" fill="#a43d63"/><rect x="266.79" y="59.29" width="29.64" height="29.64" fill="#31192c"/><path d="M 266.79 88.93 A 29.64 29.64 0 0 1  296.43 59.29 L 296.43 88.93L266.79 88.93" fill="#baaca9"/><rect x="237.14" y="88.93" width="29.64" height="29.64" fill="#a39796"/><path d="M 237.14 118.57000000000001 A 29.64 29.64 0 0 0 266.78 88.93 L 237.14 88.93L237.14 118.57000000000001" fill="#aa3e66"/><rect x="266.79" y="88.93" width="29.64" height="29.64" fill="#bc446e"/><path d="M 266.79 88.93 A 29.64 29.64 0 0 0 296.43 118.57000000000001 L 296.43 88.93L266.79 88.93" fill="#6e2c49"/><rect x="296.43" y="59.29" width="59.29" height="59.29" fill="#a63d64"/><rect x="296.43" y="59.29" width="59.29" height="59.29" fill="#752e4d"/><rect x="355.71" y="59.29" width="59.29" height="59.29" fill="#332b37"/><path d="M 355.71 59.29 A 59.29 59.29 0 0 1  415 118.58 L 355.71 59.29 A 59.29 59.29 0 0 0 415 118.58" fill="#c7b9b4"/><rect x="415" y="59.285714285714285" width="59.285714285714285" height="59.285714285714285" fill="#191221"/><rect x="415" y="59.29" width="29.64" height="29.64" fill="#853354"/><polygon points="444.64,59.29 444.64,88.93 415,88.93" fill="#d3c5bf"/><rect x="444.64" y="59.29" width="29.64" height="29.64" fill="#a39696"/><polygon points="444.64,59.29 474.28,59.29 444.64,88.93" fill="#bd446f"/><rect x="415" y="88.93" width="29.64" height="29.64" fill="#b2a5a2"/><polygon points="415,88.93 444.64,88.93 444.64,118.57000000000001" fill="#7c7175"/><rect x="444.64" y="88.93" width="29.64" height="29.64" fill="#401e33"/><polygon points="444.64,88.93 474.28,118.57000000000001 444.64,118.57000000000001" fill="#2f2734"/><rect x="474.2857142857143" y="59.285714285714285" width="59.285714285714285" height="59.285714285714285" fill="#191221"/><rect x="474.29" y="59.29" width="29.64" height="29.64" fill="#321a2d"/><polygon points="503.93,59.29 503.93,88.93 474.29,88.93" fill="#b9436d"/><rect x="503.93" y="59.29" width="29.64" height="29.64" fill="#5c525a"/><polygon points="503.93,59.29 533.57,88.93 503.93,88.93" fill="#9e3b60"/><rect x="474.29" y="88.93" width="29.64" height="29.64" fill="#371b2f"/><polygon points="474.29,88.93 503.93,88.93 474.29,118.57000000000001" fill="#4e454e"/><rect x="503.93" y="88.93" width="29.64" height="29.64" fill="#4b2139"/><polygon points="503.93,88.93 533.57,88.93 533.57,118.57000000000001" fill="#edded5"/><rect x="533.57" y="59.29" width="59.29" height="59.29" fill="#c94875"/><path d="M 533.57 118.58 A 59.29 59.29 0 0 1  592.86 59.29 L 592.86 118.58L533.57 118.58" fill="#73686d"/><rect x="0" y="118.57142857142857" width="59.285714285714285" height="59.285714285714285" fill="#191221"/><rect x="0" y="118.57" width="29.64" height="29.64" fill="#877b7e"/><polygon points="29.64,118.57 29.64,148.20999999999998 0,148.20999999999998" fill="#3c1d31"/><rect x="29.64" y="118.57" width="29.64" height="29.64" fill="#ab3f66"/><polygon points="29.64,118.57 59.28,118.57 29.64,148.20999999999998" fill="#1b1422"/><rect x="0" y="148.21" width="29.64" height="29.64" fill="#50233b"/><polygon points="0,148.21 29.64,148.21 29.64,177.85000000000002" fill="#c5b7b3"/><rect x="29.64" y="148.21" width="29.64" height="29.64" fill="#1d1625"/><polygon points="29.64,148.21 59.28,177.85000000000002 29.64,177.85000000000002" fill="#928688"/><rect x="59.29" y="118.57" width="59.29" height="59.29" fill="#aea2a0"/><rect x="59.29" y="118.57" width="59.29" height="59.29" fill="#b4426b"/><rect x="118.57" y="118.57" width="59.29" height="59.29" fill="#807578"/><rect x="118.57" y="118.57" width="59.29" height="59.29" fill="#1d1323"/><rect x="177.86" y="118.57" width="59.29" height="59.29" fill="#a29595"/><rect x="177.86" y="118.57" width="59.29" height="59.29" fill="#f2e3d9"/><rect x="237.14285714285714" y="118.57142857142857" width="59.285714285714285" height="59.285714285714285" fill="#191221"/><rect x="237.14" y="118.57" width="29.64" height="29.64" fill="#2f192c"/><polygon points="266.78,118.57 266.78,148.20999999999998 237.14,148.20999999999998" fill="#7d3151"/><rect x="266.79" y="118.57" width="29.64" height="29.64" fill="#514851"/><polygon points="266.79,118.57 296.43,148.20999999999998 266.79,148.20999999999998" fill="#b4426b"/><rect x="237.14" y="148.21" width="29.64" height="29.64" fill="#948889"/><polygon points="237.14,148.21 266.78,148.21 266.78,177.85000000000002" fill="#56253e"/><rect x="266.79" y="148.21" width="29.64" height="29.64" fill="#60575d"/><polygon points="266.79,148.21 296.43,148.21 266.79,177.85000000000002" fill="#93375b"/><rect x="296.43" y="118.57" width="59.29" height="59.29" fill="#f2e3d9"/><rect x="296.43" y="118.57" width="59.29" height="59.29" fill="#5c2741"/><rect x="355.71" y="118.57" width="59.29" height="59.29" fill="#433a44"/><path d="M 355.71 118.57 A 59.29 59.29 0 0 0 415 177.85999999999999 L 415 118.57L355.71 118.57" fill="#2d182b"/><rect x="415" y="118.57142857142857" width="59.285714285714285" height="59.285714285714285" fill="#191221"/><rect x="415" y="118.57" width="29.64" height="29.64" fill="#8a7e81"/><polygon points="444.64,118.57 444.64,148.20999999999998 415,148.20999999999998" fill="#7f3152"/><rect x="444.64" y="118.57" width="29.64" height="29.64" fill="#7b304f"/><polygon points="444.64,118.57 474.28,148.20999999999998 444.64,148.20999999999998" fill="#a79b9a"/><rect x="415" y="148.21" width="29.64" height="29.64" fill="#a59998"/><polygon points="415,148.21 444.64,148.21 444.64,177.85000000000002" fill="#6d2c49"/><rect x="444.64" y="148.21" width="29.64" height="29.64" fill="#867b7d"/><polygon points="444.64,148.21 474.28,148.21 444.64,177.85000000000002" fill="#332b37"/><rect x="474.2857142857143" y="118.57142857142857" width="59.285714285714285" height="59.285714285714285" fill="#191221"/><rect x="474.29" y="118.57" width="29.64" height="29.64" fill="#1f1827"/><circle cx="489.11" cy="133.39" r="14.82" fill="#b6a9a6"/><rect x="503.93" y="118.57" width="29.64" height="29.64" fill="#695f65"/><rect x="503.93" y="118.57" width="29.64" height="29.64" fill="#191221"/><rect x="474.29" y="148.21" width="29.64" height="29.64" fill="#c7b9b5"/><circle cx="489.11" cy="163.03" r="14.82" fill="#bf4570"/><rect x="503.93" y="148.21" width="29.64" height="29.64" fill="#95385c"/><rect x="503.93" y="148.21" width="29.64" height="29.64" fill="#62585f"/><rect x="533.5714285714286" y="118.57142857142857" width="59.285714285714285" height="59.285714285714285" fill="#191221"/><rect x="533.57" y="118.57" width="29.64" height="29.64" fill="#a59898"/><polygon points="563.21,118.57 563.21,148.20999999999998 533.57,148.20999999999998" fill="#b6a9a7"/><rect x="563.21" y="118.57" width="29.64" height="29.64" fill="#732e4c"/><polygon points="563.21,118.57 592.85,148.20999999999998 563.21,148.20999999999998" fill="#261f2c"/><rect x="533.57" y="148.21" width="29.64" height="29.64" fill="#752e4d"/><polygon points="533.57,148.21 563.21,148.21 563.21,177.85000000000002" fill="#1e1725"/><rect x="563.21" y="148.21" width="29.64" height="29.64" fill="#b4426a"/><polygon points="563.21,148.21 592.85,148.21 563.21,177.85000000000002" fill="#9b3a5f"/><rect x="0" y="177.86" width="59.29" height="59.29" fill="#d5c7c0"/><rect x="0" y="177.86" width="59.29" height="59.29" fill="#893556"/><rect x="59.285714285714285" y="177.85714285714286" width="59.285714285714285" height="59.285714285714285" fill="#191221"/><rect x="59.29" y="177.86" width="29.64" height="29.64" fill="#351a2e"/><path d="M 59.29 207.5 A 29.64 29.64 0 0 0 88.93 177.86 L 59.29 177.86L59.29 207.5" fill="#c34672"/><rect x="88.93" y="177.86" width="29.64" height="29.64" fill="#877c7e"/><path d="M 88.93 177.86 A 29.64 29.64 0 0 0 118.57000000000001 207.5 L 118.57000000000001 177.86L88.93 177.86" fill="#251627"/><rect x="59.29" y="207.5" width="29.64" height="29.64" fill="#261e2c"/><path d="M 59.29 207.5 A 29.64 29.64 0 0 1 88.93 237.14 L 59.29 237.14L59.29 207.5" fill="#351a2e"/><rect x="88.93" y="207.5" width="29.64" height="29.64" fill="#d5c7c1"/><path d="M 88.93 237.14 A 29.64 29.64 0 0 1  118.57000000000001 207.5 L 118.57000000000001 237.14L88.93 237.14" fill="#7b3050"/><rect x="118.57" y="177.86" width="59.29" height="59.29" fill="#b14169"/><polygon points="118.57,177.86 177.85999999999999,237.15 118.57,237.15" fill="#211927"/><rect x="177.85714285714286" y="177.85714285714286" width="59.285714285714285" height="59.285714285714285" fill="#191221"/><rect x="177.86" y="177.86" width="29.64" height="29.64" fill="#411e34"/><polygon points="207.5,177.86 207.5,207.5 177.86,207.5" fill="#2c2531"/><rect x="207.5" y="177.86" width="29.64" height="29.64" fill="#4f233b"/><polygon points="207.5,177.86 237.14,207.5 207.5,207.5" fill="#908486"/><rect x="177.86" y="207.5" width="29.64" height="29.64" fill="#595058"/><polygon points="177.86,207.5 207.5,207.5 177.86,237.14" fill="#bf4570"/><rect x="207.5" y="207.5" width="29.64" height="29.64" fill="#6e2c4a"/><polygon points="207.5,207.5 237.14,207.5 237.14,237.14" fill="#9d3b60"/><rect x="237.14" y="177.86" width="59.29" height="59.29" fill="#6a6066"/><polygon points="237.14,177.86 296.43,177.86 296.43,237.15" fill="#a73e64"/><rect x="296.42857142857144" y="177.85714285714286" width="59.285714285714285" height="59.285714285714285" fill="#191221"/><rect x="296.43" y="177.86" width="29.64" height="29.64" fill="#6f646a"/><polygon points="326.07,177.86 326.07,207.5 296.43,207.5" fill="#b14169"/><rect x="326.07" y="177.86" width="29.64" height="29.64" fill="#231526"/><polygon points="326.07,177.86 355.71,207.5 326.07,207.5" fill="#c24671"/><rect x="296.43" y="207.5" width="29.64" height="29.64" fill="#ffefe4"/><polygon points="296.43,207.5 326.07,207.5 326.07,237.14" fill="#261f2c"/><rect x="326.07" y="207.5" width="29.64" height="29.64" fill="#1b1423"/><polygon points="326.07,207.5 355.71,207.5 326.07,237.14" fill="#4c2239"/><rect x="355.71" y="177.86" width="59.29" height="59.29" fill="#201927"/><path d="M 355.71 177.86 A 59.29 59.29 0 0 0 415 237.15 L 415 177.86L355.71 177.86" fill="#6f646a"/><rect x="415" y="177.86" width="59.29" height="59.29" fill="#b7426c"/><rect x="415" y="177.86" width="59.29" height="59.29" fill="#dbccc5"/><rect x="474.2857142857143" y="177.85714285714286" width="59.285714285714285" height="59.285714285714285" fill="#191221"/><rect x="474.29" y="177.86" width="29.64" height="29.64" fill="#b6426c"/><path d="M 474.29 177.86 A 29.64 29.64 0 0 1 503.93 207.5 L 474.29 207.5L474.29 177.86" fill="#524851"/><rect x="503.93" y="177.86" width="29.64" height="29.64" fill="#351a2e"/><path d="M 503.93 207.5 A 29.64 29.64 0 0 1  533.57 177.86 L 533.57 207.5L503.93 207.5" fill="#a19595"/><rect x="474.29" y="207.5" width="29.64" height="29.64" fill="#371b2f"/><path d="M 474.29 237.14 A 29.64 29.64 0 0 0 503.93 207.5 L 474.29 207.5L474.29 237.14" fill="#776c71"/><rect x="503.93" y="207.5" width="29.64" height="29.64" fill="#843354"/><path d="M 503.93 207.5 A 29.64 29.64 0 0 0 533.57 237.14 L 533.57 207.5L503.93 207.5" fill="#b4426b"/><rect x="533.57" y="177.86" width="59.29" height="59.29" fill="#bf4570"/><path d="M 533.57 237.15 A 59.29 59.29 0 0 1  592.86 177.86 L 533.57 237.15 A 59.29 59.29 0 0 0 592.86 177.86" fill="#776c70"/><rect x="0" y="237.14285714285714" width="59.285714285714285" height="59.285714285714285" fill="#191221"/><rect x="0" y="237.14" width="29.64" height="29.64" fill="#702d4a"/><path d="M 0 237.14 A 29.64 29.64 0 0 0 29.64 266.78 L 29.64 237.14L0 237.14" fill="#2f192b"/><rect x="29.64" y="237.14" width="29.64" height="29.64" fill="#4c2239"/><path d="M 29.64 266.78 A 29.64 29.64 0 0 0 59.28 237.14 L 29.64 237.14L29.64 266.78" fill="#57253e"/><rect x="0" y="266.79" width="29.64" height="29.64" fill="#fbebe0"/><path d="M 0 296.43 A 29.64 29.64 0 0 1  29.64 266.79 L 29.64 296.43L0 296.43" fill="#7a304f"/><rect x="29.64" y="266.79" width="29.64" height="29.64" fill="#8b8082"/><path d="M 29.64 266.79 A 29.64 29.64 0 0 1 59.28 296.43 L 29.64 296.43L29.64 266.79" fill="#61575e"/><rect x="59.285714285714285" y="237.14285714285714" width="59.285714285714285" height="59.285714285714285" fill="#191221"/><rect x="59.29" y="237.14" width="29.64" height="29.64" fill="#472037"/><path d="M 59.29 266.78 A 29.64 29.64 0 0 1  88.93 237.14 L 88.93 266.78L59.29 266.78" fill="#c8bab5"/><rect x="88.93" y="237.14" width="29.64" height="29.64" fill="#92375b"/><path d="M 88.93 237.14 A 29.64 29.64 0 0 1 118.57000000000001 266.78 L 88.93 266.78L88.93 237.14" fill="#d5c7c1"/><rect x="59.29" y="266.79" width="29.64" height="29.64" fill="#2e2633"/><path d="M 59.29 266.79 A 29.64 29.64 0 0 0 88.93 296.43 L 88.93 266.79L59.29 266.79" fill="#321a2d"/><rect x="88.93" y="266.79" width="29.64" height="29.64" fill="#dbccc5"/><path d="M 88.93 296.43 A 29.64 29.64 0 0 0 118.57000000000001 266.79 L 88.93 266.79L88.93 296.43" fill="#211425"/><rect x="118.57142857142857" y="237.14285714285714" width="59.285714285714285" height="59.285714285714285" fill="#191221"/><rect x="118.57" y="237.14" width="29.64" height="29.64" fill="#4c434d"/><path d="M 118.57 266.78 A 29.64 29.64 0 0 1 148.20999999999998 237.14 L 148.20999999999998 244.54999999999998 A 22.23 22.23 0 0 0 125.97999999999999 266.78" fill="#9a395e"/><rect x="148.21" y="237.14" width="29.64" height="29.64" fill="#8b7f82"/><path d="M 148.21 237.14 A 29.64 29.64 0 0 1 177.85000000000002 266.78 L 170.44 266.78 A 22.23 22.23 0 0 0 148.21 244.54999999999998" fill="#6e2c4a"/><rect x="118.57" y="266.79" width="29.64" height="29.64" fill="#c6b8b3"/><path d="M 118.57 266.79 A 29.64 29.64 0 0 0 148.20999999999998 296.43 L 148.20999999999998 289.02000000000004 A 22.23 22.23 0 0 1 125.97999999999999 266.79" fill="#762f4d"/><rect x="148.21" y="266.79" width="29.64" height="29.64" fill="#95385c"/><path d="M 148.21 296.43 A 29.64 29.64 0 0 0 177.85000000000002 266.79 L 170.44 266.79 A 22.23 22.23 0 0 1 148.21 289.02000000000004" fill="#b04069"/><rect x="177.86" y="237.14" width="59.29" height="59.29" fill="#ba436d"/><rect x="177.86" y="237.14" width="59.29" height="59.29" fill="#5a2640"/><rect x="237.14285714285714" y="237.14285714285714" width="59.285714285714285" height="59.285714285714285" fill="#191221"/><rect x="237.14" y="237.14" width="29.64" height="29.64" fill="#1e1625"/><polygon points="266.78,237.14 266.78,266.78 237.14,266.78" fill="#9c9090"/><rect x="266.79" y="237.14" width="29.64" height="29.64" fill="#321a2d"/><polygon points="266.79,237.14 296.43,237.14 266.79,266.78" fill="#fcede2"/><rect x="237.14" y="266.79" width="29.64" height="29.64" fill="#7a304f"/><polygon points="237.14,266.79 266.78,266.79 266.78,296.43" fill="#584e56"/><rect x="266.79" y="266.79" width="29.64" height="29.64" fill="#2b2330"/><polygon points="266.79,266.79 296.43,296.43 266.79,296.43" fill="#decfc8"/><rect x="296.43" y="237.14" width="59.29" height="59.29" fill="#61575e"/><rect x="296.43" y="237.14" width="59.29" height="59.29" fill="#391c30"/><rect x="355.71" y="237.14" width="59.29" height="59.29" fill="#d5c7c0"/><rect x="355.71" y="237.14" width="59.29" height="59.29" fill="#ccbeb9"/><rect x="415" y="237.14285714285714" width="59.285714285714285" height="59.285714285714285" fill="#191221"/><rect x="415" y="237.14" width="29.64" height="29.64" fill="#f2e3d9"/><polygon points="444.64,237.14 444.64,266.78 415,266.78" fill="#574d55"/><rect x="444.64" y="237.14" width="29.64" height="29.64" fill="#662a46"/><polygon points="444.64,237.14 474.28,237.14 444.64,266.78" fill="#682a46"/><rect x="415" y="266.79" width="29.64" height="29.64" fill="#91375a"/><polygon points="415,266.79 444.64,266.79 444.64,296.43" fill="#ab9f9d"/><rect x="444.64" y="266.79" width="29.64" height="29.64" fill="#3f1e33"/><polygon points="444.64,266.79 474.28,296.43 444.64,296.43" fill="#c34672"/><rect x="474.29" y="237.14" width="59.29" height="59.29" fill="#52233c"/><path d="M 474.29 296.43 A 59.29 59.29 0 0 1  533.58 237.14 L 533.58 296.43L474.29 296.43" fill="#7a6f73"/><rect x="533.5714285714286" y="237.14285714285714" width="59.285714285714285" height="59.285714285714285" fill="#191221"/><rect x="533.57" y="237.14" width="29.64" height="29.64" fill="#1e1424"/><path d="M 533.57 237.14 A 29.64 29.64 0 0 0 563.21 266.78 L 563.21 237.14L533.57 237.14" fill="#c84874"/><rect x="563.21" y="237.14" width="29.64" height="29.64" fill="#302834"/><path d="M 563.21 266.78 A 29.64 29.64 0 0 0 592.85 237.14 L 563.21 237.14L563.21 266.78" fill="#60565d"/><rect x="533.57" y="266.79" width="29.64" height="29.64" fill="#99395e"/><path d="M 533.57 296.43 A 29.64 29.64 0 0 1  563.21 266.79 L 563.21 296.43L533.57 296.43" fill="#cbbdb8"/><rect x="563.21" y="266.79" width="29.64" height="29.64" fill="#ffefe4"/><path d="M 563.21 266.79 A 29.64 29.64 0 0 1 592.85 296.43 L 563.21 296.43L563.21 266.79" fill="#4a2138"/><rect x="0" y="296.42857142857144" width="59.285714285714285" height="59.285714285714285" fill="#191221"/><rect x="0" y="296.43" width="29.64" height="29.64" fill="#833253"/><polygon points="29.64,296.43 29.64,326.07 0,326.07" fill="#534a52"/><rect x="29.64" y="296.43" width="29.64" height="29.64" fill="#231c29"/><polygon points="29.64,296.43 59.28,326.07 29.64,326.07" fill="#58253f"/><rect x="0" y="326.07" width="29.64" height="29.64" fill="#94385c"/><polygon points="0,326.07 29.64,326.07 29.64,355.71" fill="#dbccc5"/><rect x="29.64" y="326.07" width="29.64" height="29.64" fill="#867a7d"/><polygon points="29.64,326.07 59.28,326.07 29.64,355.71" fill="#433b45"/><rect x="59.29" y="296.43" width="59.29" height="59.29" fill="#91375a"/><path d="M 59.29 355.72 A 59.29 59.29 0 0 1  118.58 296.43 L 59.29 355.72 A 59.29 59.29 0 0 0 118.58 296.43" fill="#291728"/><rect x="118.57142857142857" y="296.42857142857144" width="59.285714285714285" height="59.285714285714285" fill="#191221"/><rect x="118.57" y="296.43" width="29.64" height="29.64" fill="#3b1c31"/><polygon points="148.20999999999998,296.43 148.20999999999998,326.07 118.57,326.07" fill="#732e4c"/><rect x="148.21" y="296.43" width="29.64" height="29.64" fill="#fcece1"/><polygon points="148.21,296.43 177.85000000000002,296.43 148.21,326.07" fill="#807578"/><rect x="118.57" y="326.07" width="29.64" height="29.64" fill="#cc4976"/><polygon points="118.57,326.07 148.20999999999998,326.07 148.20999999999998,355.71" fill="#beb1ad"/><rect x="148.21" y="326.07" width="29.64" height="29.64" fill="#5a2640"/><polygon points="148.21,326.07 177.85000000000002,355.71 148.21,355.71" fill="#893556"/><rect x="177.85714285714286" y="296.42857142857144" width="59.285714285714285" height="59.285714285714285" fill="#191221"/><rect x="177.86" y="296.43" width="29.64" height="29.64" fill="#dfd0c8"/><path d="M 177.86 326.07 A 29.64 29.64 0 0 0 207.5 296.43 L 177.86 296.43L177.86 326.07" fill="#742e4c"/><rect x="207.5" y="296.43" width="29.64" height="29.64" fill="#9a8e8f"/><path d="M 207.5 296.43 A 29.64 29.64 0 0 0 237.14 326.07 L 237.14 296.43L207.5 296.43" fill="#431f35"/><rect x="177.86" y="326.07" width="29.64" height="29.64" fill="#a93e65"/><path d="M 177.86 326.07 A 29.64 29.64 0 0 1 207.5 355.71 L 177.86 355.71L177.86 326.07" fill="#b6426b"/><rect x="207.5" y="326.07" width="29.64" height="29.64" fill="#b24169"/><path d="M 207.5 355.71 A 29.64 29.64 0 0 1  237.14 326.07 L 237.14 355.71L207.5 355.71" fill="#f1e2d8"/><rect x="237.14285714285714" y="296.42857142857144" width="59.285714285714285" height="59.285714285714285" fill="#191221"/><rect x="237.14" y="296.43" width="29.64" height="29.64" fill="#752e4c"/><path d="M 237.14 326.07 A 29.64 29.64 0 0 1 266.78 296.43 L 266.78 303.84000000000003 A 22.23 22.23 0 0 0 244.54999999999998 326.07" fill="#d2c4be"/><rect x="266.79" y="296.43" width="29.64" height="29.64" fill="#823253"/><path d="M 266.79 296.43 A 29.64 29.64 0 0 1 296.43 326.07 L 289.02000000000004 326.07 A 22.23 22.23 0 0 0 266.79 303.84000000000003" fill="#5c525a"/><rect x="237.14" y="326.07" width="29.64" height="29.64" fill="#b04069"/><path d="M 237.14 326.07 A 29.64 29.64 0 0 0 266.78 355.71 L 266.78 348.3 A 22.23 22.23 0 0 1 244.54999999999998 326.07" fill="#a59897"/><rect x="266.79" y="326.07" width="29.64" height="29.64" fill="#685e64"/><path d="M 266.79 355.71 A 29.64 29.64 0 0 0 296.43 326.07 L 289.02000000000004 326.07 A 22.23 22.23 0 0 1 266.79 348.3" fill="#be456f"/><rect x="296.42857142857144" y="296.42857142857144" width="59.285714285714285" height="59.285714285714285" fill="#191221"/><rect x="296.43" y="296.43" width="29.64" height="29.64" fill="#74696e"/><path d="M 296.43 326.07 A 29.64 29.64 0 0 1 326.07 296.43 L 326.07 303.84000000000003 A 22.23 22.23 0 0 0 303.84000000000003 326.07" fill="#381c30"/><rect x="326.07" y="296.43" width="29.64" height="29.64" fill="#1f1826"/><path d="M 326.07 296.43 A 29.64 29.64 0 0 1 355.71 326.07 L 348.3 326.07 A 22.23 22.23 0 0 0 326.07 303.84000000000003" fill="#7d3150"/><rect x="296.43" y="326.07" width="29.64" height="29.64" fill="#433a45"/><path d="M 296.43 326.07 A 29.64 29.64 0 0 0 326.07 355.71 L 326.07 348.3 A 22.23 22.23 0 0 1 303.84000000000003 326.07" fill="#af4068"/><rect x="326.07" y="326.07" width="29.64" height="29.64" fill="#aea1a0"/><path d="M 326.07 355.71 A 29.64 29.64 0 0 0 355.71 326.07 L 348.3 326.07 A 22.23 22.23 0 0 1 326.07 348.3" fill="#362e39"/><rect x="355.71" y="296.43" width="59.29" height="59.29" fill="#b9aca9"/><polygon points="355.71,296.43 415,296.43 415,355.72" fill="#322a36"/><rect x="415" y="296.43" width="59.29" height="59.29" fill="#ebdbd3"/><polygon points="474.29,296.43 474.29,355.72 415,355.72" fill="#c8bab5"/><rect x="474.29" y="296.43" width="59.29" height="59.29" fill="#5c525a"/><polygon points="474.29,296.43 533.58,296.43 474.29,355.72" fill="#d0c1bc"/><rect x="533.57" y="296.43" width="59.29" height="59.29" fill="#6c6267"/><rect x="533.57" y="296.43" width="59.29" height="59.29" fill="#cec0ba"/><rect x="0" y="355.71" width="59.29" height="59.29" fill="#f0e1d7"/><polygon points="0,355.71 59.29,355.71 59.29,415" fill="#712d4b"/><rect x="59.285714285714285" y="355.7142857142857" width="59.285714285714285" height="59.285714285714285" fill="#191221"/><rect x="59.29" y="355.71" width="29.64" height="29.64" fill="#c84874"/><polygon points="88.93,355.71 88.93,385.34999999999997 59.29,385.34999999999997" fill="#8b7f81"/><rect x="88.93" y="355.71" width="29.64" height="29.64" fill="#5d2741"/><polygon points="88.93,355.71 118.57000000000001,385.34999999999997 88.93,385.34999999999997" fill="#776c70"/><rect x="59.29" y="385.36" width="29.64" height="29.64" fill="#50233b"/><polygon points="59.29,385.36 88.93,385.36 59.29,415" fill="#813252"/><rect x="88.93" y="385.36" width="29.64" height="29.64" fill="#231526"/><polygon points="88.93,385.36 118.57000000000001,385.36 118.57000000000001,415" fill="#6c2c48"/><rect x="118.57" y="355.71" width="59.29" height="59.29" fill="#94888a"/><polygon points="118.57,355.71 177.85999999999999,415 118.57,415" fill="#873455"/><rect x="177.86" y="355.71" width="59.29" height="59.29" fill="#b8436d"/><path d="M 177.86 355.71 A 59.29 59.29 0 0 1 237.15 415 L 177.86 415L177.86 355.71" fill="#8c3558"/><rect x="237.14285714285714" y="355.7142857142857" width="59.285714285714285" height="59.285714285714285" fill="#191221"/><rect x="237.14" y="355.71" width="29.64" height="29.64" fill="#92375b"/><path d="M 237.14 355.71 A 29.64 29.64 0 0 0 266.78 385.34999999999997 L 266.78 355.71L237.14 355.71" fill="#c1b4b0"/><rect x="266.79" y="355.71" width="29.64" height="29.64" fill="#2a1729"/><path d="M 266.79 385.34999999999997 A 29.64 29.64 0 0 0 296.43 355.71 L 266.79 355.71L266.79 385.34999999999997" fill="#b4a7a4"/><rect x="237.14" y="385.36" width="29.64" height="29.64" fill="#f6e6dc"/><path d="M 237.14 415 A 29.64 29.64 0 0 1  266.78 385.36 L 266.78 415L237.14 415" fill="#241526"/><rect x="266.79" y="385.36" width="29.64" height="29.64" fill="#361b2f"/><path d="M 266.79 385.36 A 29.64 29.64 0 0 1 296.43 415 L 266.79 415L266.79 385.36" fill="#b2416a"/><rect x="296.42857142857144" y="355.7142857142857" width="59.285714285714285" height="59.285714285714285" fill="#191221"/><rect x="296.43" y="355.71" width="29.64" height="29.64" fill="#411e34"/><path d="M 296.43 355.71 A 29.64 29.64 0 0 0 326.07 385.34999999999997 L 326.07 355.71L296.43 355.71" fill="#682a47"/><rect x="326.07" y="355.71" width="29.64" height="29.64" fill="#ebdbd3"/><path d="M 326.07 385.34999999999997 A 29.64 29.64 0 0 0 355.71 355.71 L 326.07 355.71L326.07 385.34999999999997" fill="#241526"/><rect x="296.43" y="385.36" width="29.64" height="29.64" fill="#873455"/><path d="M 296.43 415 A 29.64 29.64 0 0 1  326.07 385.36 L 326.07 415L296.43 415" fill="#411e34"/><rect x="326.07" y="385.36" width="29.64" height="29.64" fill="#c3b5b1"/><path d="M 326.07 385.36 A 29.64 29.64 0 0 1 355.71 415 L 326.07 415L326.07 385.36" fill="#fcece2"/><rect x="355.7142857142857" y="355.7142857142857" width="59.285714285714285" height="59.285714285714285" fill="#191221"/><rect x="355.71" y="355.71" width="29.64" height="29.64" fill="#665c62"/><polygon points="385.34999999999997,355.71 385.34999999999997,385.34999999999997 355.71,385.34999999999997" fill="#c64773"/><rect x="385.36" y="355.71" width="29.64" height="29.64" fill="#7a304f"/><polygon points="385.36,355.71 415,385.34999999999997 385.36,385.34999999999997" fill="#6a2b47"/><rect x="355.71" y="385.36" width="29.64" height="29.64" fill="#61575e"/><polygon points="355.71,385.36 385.34999999999997,385.36 355.71,415" fill="#4d223a"/><rect x="385.36" y="385.36" width="29.64" height="29.64" fill="#aea19f"/><polygon points="385.36,385.36 415,385.36 415,415" fill="#8a3557"/><rect x="415" y="355.7142857142857" width="59.285714285714285" height="59.285714285714285" fill="#191221"/><rect x="415" y="355.71" width="29.64" height="29.64" fill="#e2d3cc"/><polygon points="444.64,355.71 444.64,385.34999999999997 415,385.34999999999997" fill="#c64773"/><rect x="444.64" y="355.71" width="29.64" height="29.64" fill="#aea19f"/><polygon points="444.64,355.71 474.28,355.71 444.64,385.34999999999997" fill="#72676c"/><rect x="415" y="385.36" width="29.64" height="29.64" fill="#9e9292"/><polygon points="415,385.36 444.64,385.36 444.64,415" fill="#803252"/><rect x="444.64" y="385.36" width="29.64" height="29.64" fill="#514851"/><polygon points="444.64,385.36 474.28,415 444.64,415" fill="#473e48"/><rect x="474.29" y="355.71" width="59.29" height="59.29" fill="#231526"/><rect x="474.29" y="355.71" width="59.29" height="59.29" fill="#4a2138"/><rect x="533.5714285714286" y="355.7142857142857" width="59.285714285714285" height="59.285714285714285" fill="#191221"/><rect x="533.57" y="355.71" width="29.64" height="29.64" fill="#a73e65"/><path d="M 533.57 355.71 A 29.64 29.64 0 0 1 563.21 385.34999999999997 L 533.57 385.34999999999997L533.57 355.71" fill="#421f35"/><rect x="563.21" y="355.71" width="29.64" height="29.64" fill="#d1c3bd"/><path d="M 563.21 385.34999999999997 A 29.64 29.64 0 0 1  592.85 355.71 L 592.85 385.34999999999997L563.21 385.34999999999997" fill="#492138"/><rect x="533.57" y="385.36" width="29.64" height="29.64" fill="#aa3e66"/><path d="M 533.57 415 A 29.64 29.64 0 0 0 563.21 385.36 L 533.57 385.36L533.57 415" fill="#682a47"/><rect x="563.21" y="385.36" width="29.64" height="29.64" fill="#e5d6ce"/><path d="M 563.21 385.36 A 29.64 29.64 0 0 0 592.85 415 L 592.85 385.36L563.21 385.36" fill="#472037"/></g></svg>